<svg xmlns="http://www.w3.org/2000/svg" width="394.358" height="188"><path fill="silver" opacity=".2" d="M121 17h89.571v57H121z"/><path fill="#fff" d="M114 10h89.571v57H114z"/><path fill="none" stroke="#000" d="M114 10h89.57v57H114V10ZM114 35h89.57M114 45h89.57" stroke-miterlimit="10"/><text font-family="Arial" font-size="13" font-weight="bold" x="337.403" y="258" transform="translate(-198 -230)">Target</text><text font-family="Arial" font-size="13" x="317" y="291" transform="translate(-198 -230)">+Request()</text><path fill="silver" opacity=".2" d="M265 17h119.189v57H265z"/><path fill="#fff" d="M258 10h119.189v57H258z"/><path fill="none" stroke="#000" d="M258 10h119.189v57H258V10ZM258 35h119.189M258 45h119.189" stroke-miterlimit="10"/><text font-family="Arial" font-size="13" font-weight="bold" x="489.95" y="258" transform="translate(-198 -230)">Adaptee</text><text font-family="Arial" font-size="13" x="461" y="291" transform="translate(-198 -230)">+SpecificRequest()</text><path fill="silver" opacity=".2" d="M249 113h142.358v70H249z"/><path fill="#fff" d="M242 106h142.358v70H242z"/><path fill="none" stroke="#000" d="M242 106h142.358v70H242v-70ZM242 131h142.358M242 154h142.358" stroke-miterlimit="10"/><text font-family="Arial" font-size="13" font-weight="bold" x="486.62" y="354" transform="translate(-198 -230)">Adapter</text><text font-family="Arial" font-size="13" x="445" y="377" transform="translate(-198 -230)">-m_adaptee: Adaptee*</text><text font-family="Arial" font-size="13" x="445" y="400" transform="translate(-198 -230)">+Request()</text><path fill="silver" opacity=".2" d="M17 17h50.92v44H17z"/><path fill="#fff" d="M10 10h50.92v44H10z"/><path fill="none" stroke="#000" d="M10 10h50.92v44H10V10ZM10 35h50.92M10 45h50.92" stroke-miterlimit="10"/><text font-family="Arial" font-size="13" font-weight="bold" x="215.404" y="258" transform="translate(-198 -230)">Client</text><path fill="none" stroke="#000" d="M61 34h53M103.837 38.21 114 34l-10.163-4.21M242 130h-88V67" stroke-miterlimit="10"/><path fill="#FFF" d="M162.419 87.325 154 67l-8.419 20.325"/><path fill="none" stroke="#000" d="M162.419 87.325 154 67l-8.419 20.325h16.838M322 106V67M326.21 77.163 322 67l-4.21 10.163" stroke-miterlimit="10"/><path fill="#fff" d="M10 154h187.569l10 10v13H10v-23"/><path fill="none" stroke="#000" d="M10 154h187.569l10 10v13H10v-23" stroke-miterlimit="10"/><path fill="none" stroke="#000" d="M197.569 154v10h10l-10-10" stroke-miterlimit="10"/><text font-family="Arial" font-size="13" x="213" y="399" transform="translate(-198 -230)">m_adaptee-&gt;SpecificRequest()</text><path fill="none" stroke="#000" d="M242 162h-33" stroke-miterlimit="10" stroke-dasharray="3"/></svg>