<svg xmlns="http://www.w3.org/2000/svg" width="396" height="209"><path fill="silver" opacity=".2" d="M121 17h89.571v57H121z"/><path fill="#fff" d="M114 10h89.571v57H114z"/><path fill="none" stroke="#000" d="M114 10h89.57v57H114V10ZM114 35h89.57M114 45h89.57" stroke-miterlimit="10"/><text font-family="Arial" font-size="13" font-weight="bold" x="337.403" y="258" transform="translate(-198 -230)">Target</text><text font-family="Arial" font-size="13" x="317" y="291" transform="translate(-198 -230)">+Request()</text><path fill="silver" opacity=".2" d="M273 17h119.189v57H273z"/><path fill="#fff" d="M266 10h119.189v57H266z"/><path fill="none" stroke="#000" d="M266 10h119.189v57H266V10ZM266 35h119.189M266 45h119.189" stroke-miterlimit="10"/><text font-family="Arial" font-size="13" font-weight="bold" x="497.95" y="258" transform="translate(-198 -230)">Adaptee</text><text font-family="Arial" font-size="13" x="469" y="291" transform="translate(-198 -230)">+SpecificRequest()</text><path fill="silver" opacity=".2" d="M121 145h89.571v57H121z"/><path fill="#fff" d="M114 138h89.571v57H114z"/><path fill="none" stroke="#000" d="M114 138h89.57v57H114v-57ZM114 163h89.57M114 173h89.57" stroke-miterlimit="10"/><text font-family="Arial" font-size="13" font-weight="bold" x="332.226" y="386" transform="translate(-198 -230)">Adapter</text><text font-family="Arial" font-size="13" x="317" y="419" transform="translate(-198 -230)">+Request()</text><path fill="silver" opacity=".2" d="M17 17h50.92v44H17z"/><path fill="#fff" d="M10 10h50.92v44H10z"/><path fill="none" stroke="#000" d="M10 10h50.92v44H10V10ZM10 35h50.92M10 45h50.92" stroke-miterlimit="10"/><text font-family="Arial" font-size="13" font-weight="bold" x="215.404" y="258" transform="translate(-198 -230)">Client</text><path fill="#fff" d="M258 162h117l10 10v26H258v-36"/><path fill="none" stroke="#000" d="M258 162h117l10 10v26H258v-36" stroke-miterlimit="10"/><path fill="none" stroke="#000" d="M375 162v10h10l-10-10" stroke-miterlimit="10"/><g font-family="Arial" font-size="13"><text x="461" y="407" transform="translate(-198 -230)">Call the Adaptee&apos;s</text><text x="461" y="420" transform="translate(-198 -230)">SpecificRequest</text></g><path fill="none" stroke="#000" d="M204 186h54" stroke-miterlimit="10" stroke-dasharray="3"/><path fill="none" stroke="#000" d="M61 34h53M103.837 38.21 114 34l-10.163-4.21M154 138V67" stroke-miterlimit="10"/><path fill="#FFF" d="M162.419 87.325 154 67l-8.419 20.325"/><path fill="none" stroke="#000" d="M162.419 87.325 154 67l-8.419 20.325h16.838M170 138v-32h144V67" stroke-miterlimit="10"/><path fill="#FFF" d="M322.419 87.325 314 67l-8.419 20.325"/><path fill="none" stroke="#000" d="M322.419 87.325 314 67l-8.419 20.325h16.838" stroke-miterlimit="10"/></svg>