<svg xmlns="http://www.w3.org/2000/svg" width="479.498" height="189"><path fill="silver" opacity=".2" d="M17 17h129.301v70H17z"/><path fill="#fff" d="M10 10h129.301v70H10z"/><path fill="none" stroke="#000" d="M10 10h129.3v70H10V10ZM10 35h129.3M10 58h129.3" stroke-miterlimit="10"/><text font-family="Arial" font-size="13" font-weight="bold" x="228.535" y="290" transform="translate(-190 -262)">Abstraction</text><text font-family="Arial" font-size="13" x="205" y="313" transform="translate(-190 -262)">#_imp: Implementor*</text><text font-family="Arial" font-size="13" x="205" y="336" transform="translate(-190 -262)">+Operation(): void</text><path fill="silver" opacity=".2" d="M17 129h121.671v57H17z"/><path fill="#fff" d="M10 122h121.671v57H10z"/><path fill="none" stroke="#000" d="M10 122h121.67v57H10v-57ZM10 147h121.67M10 157h121.67" stroke-miterlimit="10"/><text font-family="Arial" font-size="13" font-weight="bold" x="204.5" y="402" transform="translate(-190 -262)">RefindAbstraction</text><text font-family="Arial" font-size="13" x="205" y="435" transform="translate(-190 -262)">+Operation(): void</text><path fill="none" stroke="#000" d="M66 122V80" stroke-miterlimit="10"/><path fill="#FFF" d="M74.419 100.325 66 80l-8.419 20.325"/><path fill="none" stroke="#000" d="M74.419 100.325 66 80l-8.419 20.325h16.838" stroke-miterlimit="10"/><path fill="silver" opacity=".2" d="M265 17h137.972v57H265z"/><path fill="#fff" d="M258 10h137.972v57H258z"/><path fill="none" stroke="#000" d="M258 10h137.972v57H258V10ZM258 35h137.972M258 45h137.972" stroke-miterlimit="10"/><text font-family="Arial" font-size="13" font-weight="bold" x="477.979" y="290" transform="translate(-190 -262)">Implementor</text><text font-family="Arial" font-size="13" x="453" y="323" transform="translate(-190 -262)">+OperationImpl(): void</text><path fill="none" stroke="#000" d="M139 36h119" stroke-miterlimit="10"/><path fill="#FFF" d="M149.163 31.79 139 36l10.163 4.21L161 36"/><path fill="none" stroke="#000" d="M149.163 31.79 139 36l10.163 4.21L161 36l-11.837-4.21" stroke-miterlimit="10"/><path fill="silver" opacity=".2" d="M161 129h152.749v57H161z"/><path fill="#fff" d="M154 122h152.749v57H154z"/><path fill="none" stroke="#000" d="M154 122h152.749v57H154v-57ZM154 147h152.749M154 157h152.749" stroke-miterlimit="10"/><text font-family="Arial" font-size="13" font-weight="bold" x="348.5" y="402" transform="translate(-190 -262)">ConcreteImplementorA</text><text font-family="Arial" font-size="13" x="349" y="435" transform="translate(-190 -262)">+OperationImpl(): void</text><path fill="none" stroke="#000" d="m255 121 45-53" stroke-miterlimit="10"/><path fill="#FFF" d="M293.263 88.943 300 68l-19.573 10.045"/><path fill="none" stroke="#000" d="M293.263 88.943 300 68l-19.573 10.045 12.836 10.898" stroke-miterlimit="10"/><path fill="silver" opacity=".2" d="M323.749 129h152.749v57H323.749z"/><path fill="#fff" d="M316.749 122h152.749v57H316.749z"/><path fill="none" stroke="#000" d="M316.749 122h152.749v57H316.749v-57ZM316.749 147h152.749M316.749 157h152.749" stroke-miterlimit="10"/><text font-family="Arial" font-size="13" font-weight="bold" x="511.249" y="402" transform="translate(-190 -262)">ConcreteImplementorB</text><text font-family="Arial" font-size="13" x="511.749" y="435" transform="translate(-190 -262)">+OperationImpl(): void</text><path fill="none" stroke="#000" d="m376 121-32-53" stroke-miterlimit="10"/><path fill="#FFF" d="M361.713 81.048 344 68l3.298 21.751"/><path fill="none" stroke="#000" d="M361.713 81.048 344 68l3.298 21.751 14.415-8.703" stroke-miterlimit="10"/></svg>