<svg xmlns="http://www.w3.org/2000/svg" width="356" height="235"><path fill="silver" opacity=".2" d="M33 177h80v44H33z"/><path fill="#fff" d="M26 170h80v44H26z"/><path fill="none" stroke="#000" d="M26 170h80v44H26v-44ZM26 195h80M26 205h80" stroke-miterlimit="10"/><text font-family="Arial" font-size="13" font-weight="bold" x="319.444" y="378" transform="translate(-278 -190)">Product</text><path fill="silver" opacity=".2" d="M193 17h159.478v87H193z"/><path fill="#fff" d="M186 10h159.478v87H186z"/><path fill="none" stroke="#000" d="M186 10h159.478v87H186V10ZM186 35h159.478M186 45h159.478" stroke-miterlimit="10"/><text font-family="Arial" font-size="13" font-weight="bold" x="521.347" y="218" transform="translate(-278 -190)">Builder</text><text font-family="Arial" font-size="13" x="469" y="251" transform="translate(-278 -190)">+GetProduct(): Product*</text><text font-family="Arial" font-size="13" x="469" y="266" transform="translate(-278 -190)">+BuildPartA()</text><text font-family="Arial" font-size="13" x="469" y="281" transform="translate(-278 -190)">+BuildPartB()</text><path fill="silver" opacity=".2" d="M17 17h109.071v57H17z"/><path fill="#fff" d="M10 10h109.071v57H10z"/><path fill="none" stroke="#000" d="M10 10h109.07v57H10V10ZM10 35h109.07M10 45h109.07" stroke-miterlimit="10"/><text font-family="Arial" font-size="13" font-weight="bold" x="317.611" y="218" transform="translate(-278 -190)">Director</text><text font-family="Arial" font-size="13" x="293" y="251" transform="translate(-278 -190)">+CreateProduct()</text><path fill="silver" opacity=".2" d="M193 145h160v87H193z"/><path fill="#fff" d="M186 138h160v87H186z"/><path fill="none" stroke="#000" d="M186 138h160v87H186v-87ZM186 163h160M186 173h160" stroke-miterlimit="10"/><text font-family="Arial" font-size="13" font-weight="bold" x="493.435" y="346" transform="translate(-278 -190)">ConcreteBuilder</text><text font-family="Arial" font-size="13" x="469" y="379" transform="translate(-278 -190)">+GetProduct(): Product*</text><text font-family="Arial" font-size="13" x="469" y="394" transform="translate(-278 -190)">+BuildPartA()</text><text font-family="Arial" font-size="13" x="469" y="409" transform="translate(-278 -190)">+BuildPartB()</text><path fill="none" stroke="#000" d="M266 138V97" stroke-miterlimit="10"/><path fill="#FFF" d="M274.419 117.325 266 97l-8.419 20.325"/><path fill="none" stroke="#000" d="M274.419 117.325 266 97l-8.419 20.325h16.838" stroke-miterlimit="10"/><path fill="none" stroke="#000" d="M186 202h-80" stroke-miterlimit="10" stroke-dasharray="3"/><path fill="none" stroke="#000" d="M116.163 197.79 106 202l10.163 4.21M186 42h-67" stroke-miterlimit="10"/><path fill="#FFF" d="M129.163 37.79 119 42l10.163 4.21L141 42"/><path fill="none" stroke="#000" d="M129.163 37.79 119 42l10.163 4.21L141 42l-11.837-4.21" stroke-miterlimit="10"/></svg>