<svg xmlns="http://www.w3.org/2000/svg" width="412.907" height="197"><path fill="silver" opacity=".2" d="M145 17h89.571v57H145z"/><path fill="#fff" d="M138 10h89.571v57H138z"/><path fill="none" stroke="#000" d="M138 10h89.57v57H138V10ZM138 35h89.57M138 45h89.57" stroke-miterlimit="10"/><text font-family="Arial" font-size="13" font-weight="bold" x="325.664" y="234" transform="translate(-166 -206)">Invoker</text><text font-family="Arial" font-size="13" x="309" y="267" transform="translate(-166 -206)">+Invoke()</text><path fill="silver" opacity=".2" d="M304.571 17h89.571v57h-89.571z"/><path fill="#fff" d="M297.571 10h89.571v57h-89.571z"/><path fill="none" stroke="#000" d="M297.57 10h89.572v57H297.57V10ZM297.57 35h89.572M297.57 45h89.572" stroke-miterlimit="10"/><text font-family="Arial" font-size="13" font-weight="bold" x="476.577" y="234" transform="translate(-166 -206)">Command</text><text font-family="Arial" font-size="13" x="468.571" y="267" transform="translate(-166 -206)">+Execute()</text><path fill="none" stroke="#000" d="M228 36h70" stroke-miterlimit="10"/><path d="M238.163 31.79 228 36l10.163 4.21L250 36"/><path fill="none" stroke="#000" d="M238.163 31.79 228 36l10.163 4.21L250 36l-11.837-4.21" stroke-miterlimit="10"/><path fill="silver" opacity=".2" d="M281 137h128.907v57H281z"/><path fill="#fff" d="M274 130h128.907v57H274z"/><path fill="none" stroke="#000" d="M274 130h128.907v57H274v-57ZM274 155h128.907M274 165h128.907" stroke-miterlimit="10"/><text font-family="Arial" font-size="13" font-weight="bold" x="444.5" y="354" transform="translate(-166 -206)">ConcreteCommand</text><text font-family="Arial" font-size="13" x="445" y="387" transform="translate(-166 -206)">+Execute()</text><path fill="none" stroke="#000" d="M337 130V67" stroke-miterlimit="10"/><path fill="#FFF" d="M345.419 87.325 337 67l-8.419 20.325"/><path fill="none" stroke="#000" d="M345.419 87.325 337 67l-8.419 20.325h16.838" stroke-miterlimit="10"/><path fill="silver" opacity=".2" d="M129 137h89.571v57H129z"/><path fill="#fff" d="M122 130h89.571v57H122z"/><path fill="none" stroke="#000" d="M122 130h89.57v57H122v-57ZM122 155h89.57M122 165h89.57" stroke-miterlimit="10"/><text font-family="Arial" font-size="13" font-weight="bold" x="305.681" y="354" transform="translate(-166 -206)">Receiver</text><text font-family="Arial" font-size="13" x="293" y="387" transform="translate(-166 -206)">+Action()</text><path fill="none" stroke="#000" d="M274 158h-62M222.163 153.79 212 158l10.163 4.21" stroke-miterlimit="10"/><path fill="silver" opacity=".2" d="M17 17h50.92v44H17z"/><path fill="#fff" d="M10 10h50.92v44H10z"/><path fill="none" stroke="#000" d="M10 10h50.92v44H10V10ZM10 35h50.92M10 45h50.92" stroke-miterlimit="10"/><text font-family="Arial" font-size="13" font-weight="bold" x="183.404" y="234" transform="translate(-166 -206)">Client</text><path fill="none" stroke="#000" d="M61 34h77M127.837 38.21 138 34l-10.163-4.21" stroke-miterlimit="10"/><path fill="none" stroke="#000" d="M34 54v104h88" stroke-miterlimit="10" stroke-dasharray="3"/><path fill="none" stroke="#000" d="M111.837 162.21 122 158l-10.163-4.21" stroke-miterlimit="10"/></svg>