<svg xmlns="http://www.w3.org/2000/svg" width="357" height="274"><path fill="silver" opacity=".2" d="M49 17h184.472v107H49z"/><path fill="#fff" d="M42 10h184.472v107H42z"/><path fill="none" stroke="#000" d="M42 10h184.472v107H42V10ZM42 36h184.472M42 46h184.472" stroke-miterlimit="10"/><text font-family="Arial" font-size="14" font-weight="bold" x="373.353" y="306.5" transform="translate(-278 -278)">Component</text><text font-family="Arial" font-size="14" x="325" y="340.5" transform="translate(-278 -278)">+Operator(): void</text><text font-family="Arial" font-size="14" x="325" y="356.5" transform="translate(-278 -278)">+Add(Component): void</text><text font-family="Arial" font-size="14" x="325" y="372.5" transform="translate(-278 -278)">+Remove(Component): void</text><text font-family="Arial" font-size="14" x="325" y="388.5" transform="translate(-278 -278)">+GetChild(int): void</text><path fill="silver" opacity=".2" d="M17 169h89.571v57H17z"/><path fill="#fff" d="M10 162h89.571v57H10z"/><path fill="none" stroke="#000" d="M10 162h89.57v57H10v-57ZM10 187h89.57M10 197h89.57" stroke-miterlimit="10"/><text font-family="Arial" font-size="13" font-weight="bold" x="319.42" y="458" transform="translate(-278 -278)">Leaf</text><text font-family="Arial" font-size="13" x="293" y="491" transform="translate(-278 -278)">+Operator()</text><path fill="silver" opacity=".2" d="M153 169h171.938v102H153z"/><path fill="#fff" d="M146 162h171.938v102H146z"/><path fill="none" stroke="#000" d="M146 162h171.938v102H146V162ZM146 187h171.938M146 197h171.938" stroke-miterlimit="10"/><text font-family="Arial" font-size="13" font-weight="bold" x="476.384" y="458" transform="translate(-278 -278)">Composite</text><text font-family="Arial" font-size="13" x="429" y="491" transform="translate(-278 -278)">+Operator(): void</text><text font-family="Arial" font-size="13" x="429" y="506" transform="translate(-278 -278)">+Add(Component): void</text><text font-family="Arial" font-size="13" x="429" y="521" transform="translate(-278 -278)">+Remove(Component): void</text><text font-family="Arial" font-size="13" x="429" y="536" transform="translate(-278 -278)">+GetChild(int): void</text><path fill="none" stroke="#000" d="M66 162v-45" stroke-miterlimit="10"/><path fill="#FFF" d="M74.419 137.325 66 117l-8.419 20.325"/><path fill="none" stroke="#000" d="M74.419 137.325 66 117l-8.419 20.325h16.838M218 162v-45" stroke-miterlimit="10"/><path fill="#FFF" d="M226.419 137.325 218 117l-8.419 20.325"/><path fill="none" stroke="#000" d="M226.419 137.325 218 117l-8.419 20.325h16.838M226 26h120v187h-28" stroke-miterlimit="10"/><path fill="#FFF" d="M328.163 208.79 318 213l10.163 4.21L340 213"/><path fill="none" stroke="#000" d="M328.163 208.79 318 213l10.163 4.21L340 213l-11.837-4.21" stroke-miterlimit="10"/></svg>