<svg xmlns="http://www.w3.org/2000/svg" width="346.078" height="217"><path fill="silver" opacity=".2" d="M137 37h114.866v70H137z"/><path fill="#fff" d="M130 30h114.866v70H130z"/><path fill="none" stroke="#000" d="M130 30h114.866v70H130V30ZM130 55h114.866M130 78h114.866" stroke-miterlimit="10"/><text font-family="Arial" font-size="13" font-weight="bold" x="443.762" y="282" transform="translate(-278 -234)">Handle</text><text font-family="Arial" font-size="13" x="413" y="305" transform="translate(-278 -234)">-handle: Handle*</text><text font-family="Arial" font-size="13" x="413" y="328" transform="translate(-278 -234)">+HandleRequest()</text><path fill="silver" opacity=".2" d="M49 157h118.078v57H49z"/><path fill="#fff" d="M42 150h118.078v57H42z"/><path fill="none" stroke="#000" d="M42 150h118.078v57H42v-57ZM42 175h118.078M42 185h118.078" stroke-miterlimit="10"/><text font-family="Arial" font-size="13" font-weight="bold" x="324.5" y="402" transform="translate(-278 -234)">ConcreteHandleA</text><text font-family="Arial" font-size="13" x="325" y="435" transform="translate(-278 -234)">+HandleRequest()</text><path fill="silver" opacity=".2" d="M225 157h118.078v57H225z"/><path fill="#fff" d="M218 150h118.078v57H218z"/><path fill="none" stroke="#000" d="M218 150h118.078v57H218v-57ZM218 175h118.078M218 185h118.078" stroke-miterlimit="10"/><text font-family="Arial" font-size="13" font-weight="bold" x="500.5" y="402" transform="translate(-278 -234)">ConcreteHandleB</text><text font-family="Arial" font-size="13" x="501" y="435" transform="translate(-278 -234)">+HandleRequest()</text><path fill="none" stroke="#000" d="m123 149 37-48" stroke-miterlimit="10"/><path fill="#FFF" d="M154.26 122.238 160 101l-19.077 10.958"/><path fill="none" stroke="#000" d="M154.26 122.238 160 101l-19.077 10.958 13.336 10.28M254 149l-38-48" stroke-miterlimit="10"/><path fill="#FFF" d="M235.217 111.71 216 101l6.015 21.162"/><path fill="none" stroke="#000" d="M235.217 111.71 216 101l6.015 21.162 13.202-10.452M187 30V10h87v55h-29" stroke-miterlimit="10"/><path fill="none" stroke="#000" d="M255.163 60.79 245 65l10.163 4.21" stroke-miterlimit="10"/><path fill="silver" opacity=".2" d="M17 45h50.92v44H17z"/><path fill="#fff" d="M10 38h50.92v44H10z"/><path fill="none" stroke="#000" d="M10 38h50.92v44H10V38ZM10 63h50.92M10 73h50.92" stroke-miterlimit="10"/><text font-family="Arial" font-size="13" font-weight="bold" x="295.404" y="290" transform="translate(-278 -234)">Client</text><path fill="none" stroke="#000" d="M61 63h69M119.837 67.21 130 63l-10.163-4.21" stroke-miterlimit="10"/></svg>