<svg xmlns="http://www.w3.org/2000/svg" width="405" height="300"><path fill="silver" opacity=".2" d="M97 17h198.608v59H97z"/><path fill="#fff" d="M90 10h198.608v59H90z"/><path fill="none" stroke="#000" d="M90 10h198.608v59H90V10ZM90 36h198.608M90 46h198.608" stroke-miterlimit="10"/><text font-family="Arial" font-size="14" font-weight="bold" x="380.421" y="306.5" transform="translate(-230 -278)">Component</text><text font-family="Arial" font-size="14" x="325" y="340.5" transform="translate(-230 -278)">+Operation(): void</text><path fill="silver" opacity=".2" d="M17 121h137.559v57H17z"/><path fill="#fff" d="M10 114h137.559v57H10z"/><path fill="none" stroke="#000" d="M10 114h137.56v57H10v-57ZM10 139h137.56M10 149h137.56" stroke-miterlimit="10"/><text font-family="Arial" font-size="13" font-weight="bold" x="244.5" y="410" transform="translate(-230 -278)">ConcreteComponent</text><text font-family="Arial" font-size="13" x="245" y="443" transform="translate(-230 -278)">+Operation()</text><path fill="silver" opacity=".2" d="M225 121h137.065v57H225z"/><path fill="#fff" d="M218 114h137.065v57H218z"/><path fill="none" stroke="#000" d="M218 114h137.065v57H218v-57ZM218 139h137.065M218 149h137.065" stroke-miterlimit="10"/><text font-family="Arial" font-size="13" font-weight="bold" x="485.829" y="410" transform="translate(-230 -278)">Decorator</text><text font-family="Arial" font-size="13" x="453" y="443" transform="translate(-230 -278)">+Operation(): void</text><path fill="none" stroke="#000" d="m109 113 47-43" stroke-miterlimit="10"/><path fill="#FFF" d="M146.687 89.931 156 70l-20.68 7.508"/><path fill="none" stroke="#000" d="M146.687 89.931 156 70l-20.68 7.508 11.367 12.423M259 113l-41-43" stroke-miterlimit="10"/><path fill="#FFF" d="M238.12 78.9 218 70l7.933 20.52"/><path fill="none" stroke="#000" d="M238.12 78.9 218 70l7.933 20.52 12.186-11.62M289 26h105v116h-39" stroke-miterlimit="10"/><path fill="#FFF" d="M365.163 137.79 355 142l10.163 4.21L377 142"/><path fill="none" stroke="#000" d="M365.163 137.79 355 142l10.163 4.21L377 142l-11.837-4.21" stroke-miterlimit="10"/><path fill="silver" opacity=".2" d="M209 225h175.221v72H209z"/><path fill="#fff" d="M202 218h175.221v72H202z"/><path fill="none" stroke="#000" d="M202 218h175.22v72H202v-72ZM202 243h175.22M202 253h175.22" stroke-miterlimit="10"/><text font-family="Arial" font-size="13" font-weight="bold" x="460.733" y="514" transform="translate(-230 -278)">ConcreteDecorator</text><text font-family="Arial" font-size="13" x="437" y="547" transform="translate(-230 -278)">+Operation(): void</text><text font-family="Arial" font-size="13" x="437" y="562" transform="translate(-230 -278)">+AddedBehavior(): void</text><path fill="none" stroke="#000" d="M285 218v-47" stroke-miterlimit="10"/><path fill="#FFF" d="M293.419 191.325 285 171l-8.419 20.325"/><path fill="none" stroke="#000" d="M293.419 191.325 285 171l-8.419 20.325h16.838" stroke-miterlimit="10"/></svg>