<svg xmlns="http://www.w3.org/2000/svg" width="349.571" height="189"><path fill="silver" opacity=".2" d="M113 17h131.954v57H113z"/><path fill="#fff" d="M106 10h131.954v57H106z"/><path fill="none" stroke="#000" d="M106 10h131.954v57H106V10ZM106 35h131.954M106 45h131.954" stroke-miterlimit="10"/><text font-family="Arial" font-size="13" font-weight="bold" x="411.576" y="282" transform="translate(-262 -254)">Facade</text><text font-family="Arial" font-size="13" x="373" y="315" transform="translate(-262 -254)">+OperationWrapper()</text><path fill="silver" opacity=".2" d="M17 129h89.571v57H17z"/><path fill="#fff" d="M10 122h89.571v57H10z"/><path fill="none" stroke="#000" d="M10 122h89.57v57H10v-57ZM10 147h89.57M10 157h89.57" stroke-miterlimit="10"/><text font-family="Arial" font-size="13" font-weight="bold" x="277.77" y="394" transform="translate(-262 -254)">SubSystem1</text><text font-family="Arial" font-size="13" x="277" y="427" transform="translate(-262 -254)">+Operation()</text><path fill="silver" opacity=".2" d="M257 129h89.571v57H257z"/><path fill="#fff" d="M250 122h89.571v57H250z"/><path fill="none" stroke="#000" d="M250 122h89.57v57H250v-57ZM250 147h89.57M250 157h89.57" stroke-miterlimit="10"/><text font-family="Arial" font-size="13" font-weight="bold" x="517.77" y="394" transform="translate(-262 -254)">SubSystem3</text><text font-family="Arial" font-size="13" x="517" y="427" transform="translate(-262 -254)">+Operation()</text><path fill="silver" opacity=".2" d="M137 129h89.571v57H137z"/><path fill="#fff" d="M130 122h89.571v57H130z"/><path fill="none" stroke="#000" d="M130 122h89.57v57H130v-57ZM130 147h89.57M130 157h89.57" stroke-miterlimit="10"/><text font-family="Arial" font-size="13" font-weight="bold" x="397.77" y="394" transform="translate(-262 -254)">SubSystem2</text><text font-family="Arial" font-size="13" x="397" y="427" transform="translate(-262 -254)">+Operation()</text><path fill="none" stroke="#000" d="M220 154h30" stroke-miterlimit="10" stroke-dasharray="3"/><path fill="none" stroke="#000" d="M239.837 158.21 250 154l-10.163-4.21M106 42H50v80" stroke-miterlimit="10"/><path fill="none" stroke="#000" d="M45.79 111.837 50 122l4.21-10.163M238 42h60v80" stroke-miterlimit="10"/><path fill="none" stroke="#000" d="M293.79 111.837 298 122l4.21-10.163M178 67v55M173.79 111.837 178 122l4.21-10.163" stroke-miterlimit="10"/></svg>