<svg xmlns="http://www.w3.org/2000/svg" width="445.69" height="197"><path fill="silver" opacity=".2" d="M17 17h208.596v59H17z"/><path fill="#fff" d="M10 10h208.596v59H10z"/><path fill="none" stroke="#000" d="M10 10h208.596v59H10V10ZM10 36h208.596M10 46h208.596" stroke-miterlimit="10"/><text font-family="Arial" font-size="14" font-weight="bold" x="336.06" y="298.5" transform="translate(-270 -270)">SimpleFactory</text><text font-family="Arial" font-size="14" x="285" y="332.5" transform="translate(-270 -270)">+CreateProduct(Type): Product*</text><path fill="silver" opacity=".2" d="M265 17h90.326v57H265z"/><path fill="#fff" d="M258 10h90.326v57H258z"/><path fill="none" stroke="#000" d="M258 10h90.326v57H258V10ZM258 35h90.326M258 45h90.326" stroke-miterlimit="10"/><text font-family="Arial" font-size="13" font-weight="bold" x="548.607" y="298" transform="translate(-270 -270)">Product</text><text font-family="Arial" font-size="13" x="533" y="331" transform="translate(-270 -270)">+Operation()</text><path fill="silver" opacity=".2" d="M177 113h121.69v57H177z"/><path fill="#fff" d="M170 106h121.69v57H170z"/><path fill="none" stroke="#000" d="M170 106h121.69v57H170v-57ZM170 131h121.69M170 141h121.69" stroke-miterlimit="10"/><text font-family="Arial" font-size="13" font-weight="bold" x="444.5" y="394" transform="translate(-270 -270)">ConcreteProduct1</text><text font-family="Arial" font-size="13" x="445" y="427" transform="translate(-270 -270)">+Operation()</text><path fill="silver" opacity=".2" d="M321 113h121.69v57H321z"/><path fill="#fff" d="M314 106h121.69v57H314z"/><path fill="none" stroke="#000" d="M314 106h121.69v57H314v-57ZM314 131h121.69M314 141h121.69" stroke-miterlimit="10"/><text font-family="Arial" font-size="13" font-weight="bold" x="588.5" y="394" transform="translate(-270 -270)">ConcreteProduct2</text><text font-family="Arial" font-size="13" x="589" y="427" transform="translate(-270 -270)">+Operation()</text><path fill="none" stroke="#000" d="M286 106V67" stroke-miterlimit="10"/><path fill="#FFF" d="M294.419 87.325 286 67l-8.419 20.325"/><path fill="none" stroke="#000" d="M294.419 87.325 286 67l-8.419 20.325h16.838M320 106V67" stroke-miterlimit="10"/><path fill="#FFF" d="M328.419 87.325 320 67l-8.419 20.325"/><path fill="none" stroke="#000" d="M328.419 87.325 320 67l-8.419 20.325h16.838" stroke-miterlimit="10"/><path fill="none" stroke="#000" d="M107 69v65h63" stroke-miterlimit="10" stroke-dasharray="3"/><path fill="none" stroke="#000" d="M159.837 138.21 170 134l-10.163-4.21" stroke-miterlimit="10"/><path fill="none" stroke="#000" d="M90 69v117h280v-23" stroke-miterlimit="10" stroke-dasharray="3"/><path fill="none" stroke="#000" d="M374.21 173.163 370 163l-4.21 10.163" stroke-miterlimit="10"/></svg>