<svg xmlns="http://www.w3.org/2000/svg" width="607.078" height="429"><path fill="silver" opacity=".2" d="M153 113h128.041v75H153z"/><path fill="#fff" d="M146 106h128.041v75H146z"/><path fill="none" stroke="#000" d="M146 106h128.041v75H146v-75ZM146 132h128.041M146 142h128.041" stroke-miterlimit="10"/><text font-family="Arial" font-size="14" font-weight="bold" x="276.5" y="322.5" transform="translate(-126 -198)">ConcreteFactory2</text><text font-family="Arial" font-size="14" x="277" y="356.5" transform="translate(-126 -198)">+CreateProductA()</text><text font-family="Arial" font-size="14" x="277" y="372.5" transform="translate(-126 -198)">+CreateProductB()</text><path fill="silver" opacity=".2" d="M417 17h90.326v57H417z"/><path fill="#fff" d="M410 10h90.326v57H410z"/><path fill="none" stroke="#000" d="M410 10h90.326v57H410V10ZM410 35h90.326M410 45h90.326" stroke-miterlimit="10"/><text font-family="Arial" font-size="13" font-weight="bold" x="551.913" y="226" transform="translate(-126 -198)">ProductA</text><text font-family="Arial" font-size="13" x="541" y="259" transform="translate(-126 -198)">+Operation()</text><path fill="silver" opacity=".2" d="M329 113h131.078v57H329z"/><path fill="#fff" d="M322 106h131.078v57H322z"/><path fill="none" stroke="#000" d="M322 106h131.078v57H322v-57ZM322 131h131.078M322 141h131.078" stroke-miterlimit="10"/><text font-family="Arial" font-size="13" font-weight="bold" x="452.5" y="322" transform="translate(-126 -198)">ConcreteProductA1</text><text font-family="Arial" font-size="13" x="453" y="355" transform="translate(-126 -198)">+Operation()</text><path fill="silver" opacity=".2" d="M473 113h131.078v57H473z"/><path fill="#fff" d="M466 106h131.078v57H466z"/><path fill="none" stroke="#000" d="M466 106h131.078v57H466v-57ZM466 131h131.078M466 141h131.078" stroke-miterlimit="10"/><text font-family="Arial" font-size="13" font-weight="bold" x="596.5" y="322" transform="translate(-126 -198)">ConcreteProductA2</text><text font-family="Arial" font-size="13" x="597" y="355" transform="translate(-126 -198)">+Operation()</text><path fill="none" stroke="#000" d="M438 106V67" stroke-miterlimit="10"/><path fill="#FFF" d="M446.419 87.325 438 67l-8.419 20.325"/><path fill="none" stroke="#000" d="M446.419 87.325 438 67l-8.419 20.325h16.838M472 106V67" stroke-miterlimit="10"/><path fill="#FFF" d="M480.419 87.325 472 67l-8.419 20.325"/><path fill="none" stroke="#000" d="M480.419 87.325 472 67l-8.419 20.325h16.838" stroke-miterlimit="10"/><path fill="none" stroke="#000" d="M226 181v29h296v-47" stroke-miterlimit="10" stroke-dasharray="3"/><path fill="none" stroke="#000" d="M526.21 173.163 522 163l-4.21 10.163" stroke-miterlimit="10"/><path fill="silver" opacity=".2" d="M57 17h183.497v72H57z"/><path fill="#fff" d="M50 10h183.497v72H50z"/><path fill="none" stroke="#000" d="M50 10h183.497v72H50V10ZM50 35h183.497M50 45h183.497" stroke-miterlimit="10"/><text font-family="Arial" font-size="13" font-weight="bold" x="217.9" y="226" transform="translate(-126 -198)">AbstractFactory</text><text font-family="Arial" font-size="13" x="181" y="259" transform="translate(-126 -198)">+CreateProductA(): ProductA*</text><text font-family="Arial" font-size="13" x="181" y="274" transform="translate(-126 -198)">+CreateProductB(): ProductB*</text><path fill="none" stroke="#000" d="M154 106V82" stroke-miterlimit="10"/><path fill="#FFF" d="M162.419 102.325 154 82l-8.419 20.325"/><path fill="none" stroke="#000" d="M162.419 102.325 154 82l-8.419 20.325h16.838" stroke-miterlimit="10"/><path fill="silver" opacity=".2" d="M17 113h120v72H17z"/><path fill="#fff" d="M10 106h120v72H10z"/><path fill="none" stroke="#000" d="M10 106h120v72H10v-72ZM10 131h120M10 141h120" stroke-miterlimit="10"/><text font-family="Arial" font-size="13" font-weight="bold" x="140.731" y="322" transform="translate(-126 -198)">ConcreteFactory1</text><text font-family="Arial" font-size="13" x="141" y="355" transform="translate(-126 -198)">+CreateProductA()</text><text font-family="Arial" font-size="13" x="141" y="370" transform="translate(-126 -198)">+CreateProductB()</text><path fill="none" stroke="#000" d="M82 178v48h304v-63" stroke-miterlimit="10" stroke-dasharray="3"/><path fill="none" stroke="#000" d="M390.21 173.163 386 163l-4.21 10.163M122 106V82" stroke-miterlimit="10"/><path fill="#FFF" d="M130.419 102.325 122 82l-8.419 20.325"/><path fill="none" stroke="#000" d="M130.419 102.325 122 82l-8.419 20.325h16.838" stroke-miterlimit="10"/><path fill="silver" opacity=".2" d="M425 233h82.341v57H425z"/><path fill="#fff" d="M418 226h82.341v57H418z"/><path fill="none" stroke="#000" d="M418 226h82.34v57H418v-57ZM418 251h82.34M418 261h82.34" stroke-miterlimit="10"/><text font-family="Arial" font-size="13" font-weight="bold" x="555.92" y="442" transform="translate(-126 -198)">ProductB</text><text font-family="Arial" font-size="13" x="549" y="475" transform="translate(-126 -198)">+Operation()</text><path fill="silver" opacity=".2" d="M329 329h131.078v57H329z"/><path fill="#fff" d="M322 322h131.078v57H322z"/><path fill="none" stroke="#000" d="M322 322h131.078v57H322v-57ZM322 347h131.078M322 357h131.078" stroke-miterlimit="10"/><text font-family="Arial" font-size="13" font-weight="bold" x="452.5" y="538" transform="translate(-126 -198)">ConcreteProductB1</text><text font-family="Arial" font-size="13" x="453" y="571" transform="translate(-126 -198)">+Operation()</text><path fill="none" stroke="#000" d="M434 322v-39" stroke-miterlimit="10"/><path fill="#FFF" d="M442.419 303.325 434 283l-8.419 20.325"/><path fill="none" stroke="#000" d="M442.419 303.325 434 283l-8.419 20.325h16.838" stroke-miterlimit="10"/><path fill="silver" opacity=".2" d="M465 329h131.078v57H465z"/><path fill="#fff" d="M458 322h131.078v57H458z"/><path fill="none" stroke="#000" d="M458 322h131.078v57H458v-57ZM458 347h131.078M458 357h131.078" stroke-miterlimit="10"/><text font-family="Arial" font-size="13" font-weight="bold" x="588.5" y="538" transform="translate(-126 -198)">ConcreteProductB2</text><text font-family="Arial" font-size="13" x="589" y="571" transform="translate(-126 -198)">+Operation()</text><path fill="none" stroke="#000" d="M482 322v-39" stroke-miterlimit="10"/><path fill="#FFF" d="M490.419 303.325 482 283l-8.419 20.325"/><path fill="none" stroke="#000" d="M490.419 303.325 482 283l-8.419 20.325h16.838" stroke-miterlimit="10"/><path fill="none" stroke="#000" d="M70 178v224h317v-23" stroke-miterlimit="10" stroke-dasharray="3"/><path fill="none" stroke="#000" d="M391.21 389.163 387 379l-4.21 10.163" stroke-miterlimit="10"/><path fill="none" stroke="#000" d="M210 181v237h321v-39" stroke-miterlimit="10" stroke-dasharray="3"/><path fill="none" stroke="#000" d="M535.21 389.163 531 379l-4.21 10.163" stroke-miterlimit="10"/></svg>