<svg xmlns="http://www.w3.org/2000/svg" width="597.69" height="237"><path fill="silver" opacity=".2" d="M153 113h136v59H153z"/><path fill="#fff" d="M146 106h136v59H146z"/><path fill="none" stroke="#000" d="M146 106h136v59H146v-59ZM146 132h136M146 142h136" stroke-miterlimit="10"/><text font-family="Arial" font-size="14" font-weight="bold" x="280.479" y="322.5" transform="translate(-126 -198)">ConcreteFactory2</text><text font-family="Arial" font-size="14" x="277" y="356.5" transform="translate(-126 -198)">+CreateProduct()</text><path fill="silver" opacity=".2" d="M417 17h90.326v57H417z"/><path fill="#fff" d="M410 10h90.326v57H410z"/><path fill="none" stroke="#000" d="M410 10h90.326v57H410V10ZM410 35h90.326M410 45h90.326" stroke-miterlimit="10"/><text font-family="Arial" font-size="13" font-weight="bold" x="556.607" y="226" transform="translate(-126 -198)">Product</text><text font-family="Arial" font-size="13" x="541" y="259" transform="translate(-126 -198)">+Operation()</text><path fill="silver" opacity=".2" d="M329 113h121.69v57H329z"/><path fill="#fff" d="M322 106h121.69v57H322z"/><path fill="none" stroke="#000" d="M322 106h121.69v57H322v-57ZM322 131h121.69M322 141h121.69" stroke-miterlimit="10"/><text font-family="Arial" font-size="13" font-weight="bold" x="452.5" y="322" transform="translate(-126 -198)">ConcreteProduct1</text><text font-family="Arial" font-size="13" x="453" y="355" transform="translate(-126 -198)">+Operation()</text><path fill="silver" opacity=".2" d="M473 113h121.69v57H473z"/><path fill="#fff" d="M466 106h121.69v57H466z"/><path fill="none" stroke="#000" d="M466 106h121.69v57H466v-57ZM466 131h121.69M466 141h121.69" stroke-miterlimit="10"/><text font-family="Arial" font-size="13" font-weight="bold" x="596.5" y="322" transform="translate(-126 -198)">ConcreteProduct2</text><text font-family="Arial" font-size="13" x="597" y="355" transform="translate(-126 -198)">+Operation()</text><path fill="none" stroke="#000" d="M438 106V67" stroke-miterlimit="10"/><path fill="#FFF" d="M446.419 87.325 438 67l-8.419 20.325"/><path fill="none" stroke="#000" d="M446.419 87.325 438 67l-8.419 20.325h16.838M472 106V67" stroke-miterlimit="10"/><path fill="#FFF" d="M480.419 87.325 472 67l-8.419 20.325"/><path fill="none" stroke="#000" d="M480.419 87.325 472 67l-8.419 20.325h16.838" stroke-miterlimit="10"/><path fill="none" stroke="#000" d="M226 165v45h296v-47" stroke-miterlimit="10" stroke-dasharray="3"/><path fill="none" stroke="#000" d="M526.21 173.163 522 163l-4.21 10.163" stroke-miterlimit="10"/><path fill="silver" opacity=".2" d="M57 17h166.155v57H57z"/><path fill="#fff" d="M50 10h166.155v57H50z"/><path fill="none" stroke="#000" d="M50 10h166.155v57H50V10ZM50 35h166.155M50 45h166.155" stroke-miterlimit="10"/><text font-family="Arial" font-size="13" font-weight="bold" x="235.598" y="226" transform="translate(-126 -198)">Factory</text><text font-family="Arial" font-size="13" x="181" y="259" transform="translate(-126 -198)">+CreateProduct(): Product*</text><path fill="none" stroke="#000" d="M154 106V67" stroke-miterlimit="10"/><path fill="#FFF" d="M162.419 87.325 154 67l-8.419 20.325"/><path fill="none" stroke="#000" d="M162.419 87.325 154 67l-8.419 20.325h16.838" stroke-miterlimit="10"/><path fill="silver" opacity=".2" d="M17 113h119.538v57H17z"/><path fill="#fff" d="M10 106h119.538v57H10z"/><path fill="none" stroke="#000" d="M10 106h119.538v57H10v-57ZM10 131h119.538M10 141h119.538" stroke-miterlimit="10"/><text font-family="Arial" font-size="13" font-weight="bold" x="140.5" y="322" transform="translate(-126 -198)">ConcreteFactory1</text><text font-family="Arial" font-size="13" x="141" y="355" transform="translate(-126 -198)">+CreateProduct()</text><path fill="none" stroke="#000" d="M53 163v63h333v-63" stroke-miterlimit="10" stroke-dasharray="3"/><path fill="none" stroke="#000" d="M390.21 173.163 386 163l-4.21 10.163M122 106V67" stroke-miterlimit="10"/><path fill="#FFF" d="M130.419 87.325 122 67l-8.419 20.325"/><path fill="none" stroke="#000" d="M130.419 87.325 122 67l-8.419 20.325h16.838" stroke-miterlimit="10"/></svg>