<svg xmlns="http://www.w3.org/2000/svg" width="493.255" height="205"><path fill="silver" opacity=".2" d="M17 17h168.301v57H17z"/><path fill="#fff" d="M10 10h168.301v57H10z"/><path fill="none" stroke="#000" d="M10 10h168.3v57H10V10ZM10 35h168.3M10 45h168.3" stroke-miterlimit="10"/><text font-family="Arial" font-size="13" font-weight="bold" x="214.697" y="346" transform="translate(-174 -318)">FlyweightFactory</text><text font-family="Arial" font-size="13" x="189" y="379" transform="translate(-174 -318)">+GetFlyweight(): Flyweight</text><path fill="silver" opacity=".2" d="M255.301 17h113.413v57H255.301z"/><path fill="#fff" d="M248.301 10h113.413v57H248.301z"/><path fill="none" stroke="#000" d="M248.3 10h113.413v57H248.301V10ZM248.3 35h113.413M248.3 45h113.413" stroke-miterlimit="10"/><text font-family="Arial" font-size="13" font-weight="bold" x="449.033" y="346" transform="translate(-174 -318)">Flyweight</text><text font-family="Arial" font-size="13" x="427.301" y="379" transform="translate(-174 -318)">+Operation(): void</text><path fill="none" stroke="#000" d="M179 38h68" stroke-miterlimit="10"/><path fill="#FFF" d="M189.163 33.79 179 38l10.163 4.21L201 38"/><path fill="none" stroke="#000" d="M189.163 33.79 179 38l10.163 4.21L201 38l-11.837-4.21" stroke-miterlimit="10"/><path fill="silver" opacity=".2" d="M153 145h125.295v57H153z"/><path fill="#fff" d="M146 138h125.295v57H146z"/><path fill="none" stroke="#000" d="M146 138h125.295v57H146v-57ZM146 163h125.295M146 173h125.295" stroke-miterlimit="10"/><text font-family="Arial" font-size="13" font-weight="bold" x="324.5" y="474" transform="translate(-174 -318)">ConcreteFlyweight</text><text font-family="Arial" font-size="13" x="325" y="507" transform="translate(-174 -318)">+Operation(): void</text><path fill="none" stroke="#000" d="m230 137 52-69" stroke-miterlimit="10"/><path fill="#FFF" d="M276.49 89.299 282 68l-18.956 11.165"/><path fill="none" stroke="#000" d="M276.49 89.299 282 68l-18.956 11.165 13.447 10.134" stroke-miterlimit="10"/><path fill="silver" opacity=".2" d="M305 145h185.255v57H305z"/><path fill="#fff" d="M298 138h185.255v57H298z"/><path fill="none" stroke="#000" d="M298 138h185.255v57H298v-57ZM298 163h185.255M298 173h185.255" stroke-miterlimit="10"/><text font-family="Arial" font-size="13" font-weight="bold" x="476.5" y="474" transform="translate(-174 -318)">UnsharedConcreteFlyweight</text><text font-family="Arial" font-size="13" x="477" y="507" transform="translate(-174 -318)">+Operation(): void</text><path fill="none" stroke="#000" d="m371 137-46-69" stroke-miterlimit="10"/><path fill="#FFF" d="M343.28 80.242 325 68l4.27 21.582"/><path fill="none" stroke="#000" d="M343.28 80.242 325 68l4.27 21.582 14.01-9.34" stroke-miterlimit="10"/></svg>