<svg xmlns="http://www.w3.org/2000/svg" width="398.926" height="197"><path fill="silver" opacity=".2" d="M161 17h131.821v57H161z"/><path fill="#fff" d="M154 10h131.821v57H154z"/><path fill="none" stroke="#000" d="M154 10h131.82v57H154V10ZM154 35h131.82M154 45h131.82" stroke-miterlimit="10"/><text font-family="Arial" font-size="13" font-weight="bold" x="484.5" y="250" transform="translate(-326 -222)">AbstractExpression</text><text font-family="Arial" font-size="13" x="485" y="283" transform="translate(-326 -222)">+Interpret()</text><path fill="silver" opacity=".2" d="M89 137h132.303v57H89z"/><path fill="#fff" d="M82 130h132.303v57H82z"/><path fill="none" stroke="#000" d="M82 130h132.303v57H82v-57ZM82 155h132.303M82 165h132.303" stroke-miterlimit="10"/><text font-family="Arial" font-size="13" font-weight="bold" x="412.5" y="370" transform="translate(-326 -222)">TerminalExpression</text><text font-family="Arial" font-size="13" x="413" y="403" transform="translate(-326 -222)">+Interpret()</text><path fill="none" stroke="#000" d="m165 129 36-61" stroke-miterlimit="10"/><path fill="#FFF" d="M197.92 89.783 201 68l-17.581 13.225"/><path fill="none" stroke="#000" d="M197.92 89.783 201 68l-17.581 13.225 14.501 8.558" stroke-miterlimit="10"/><path fill="silver" opacity=".2" d="M241 137h154.926v57H241z"/><path fill="#fff" d="M234 130h154.926v57H234z"/><path fill="none" stroke="#000" d="M234 130h154.926v57H234v-57ZM234 155h154.926M234 165h154.926" stroke-miterlimit="10"/><text font-family="Arial" font-size="13" font-weight="bold" x="564.5" y="370" transform="translate(-326 -222)">NonterminalExpression</text><text font-family="Arial" font-size="13" x="565" y="403" transform="translate(-326 -222)">+Interpret()</text><path fill="none" stroke="#000" d="m289 129-47-61" stroke-miterlimit="10"/><path fill="#FFF" d="M261.074 78.962 242 68l5.736 21.239"/><path fill="none" stroke="#000" d="M261.074 78.962 242 68l5.736 21.239 13.338-10.277" stroke-miterlimit="10"/><path fill="silver" opacity=".2" d="M17 25h50.92v44H17z"/><path fill="#fff" d="M10 18h50.92v44H10z"/><path fill="none" stroke="#000" d="M10 18h50.92v44H10V18ZM10 43h50.92M10 53h50.92" stroke-miterlimit="10"/><text font-family="Arial" font-size="13" font-weight="bold" x="343.404" y="258" transform="translate(-326 -222)">Client</text><path fill="none" stroke="#000" d="M61 40h93M143.837 44.21 154 40l-10.163-4.21" stroke-miterlimit="10"/><path fill="silver" opacity=".2" d="M17 137h57.388v44H17z"/><path fill="#fff" d="M10 130h57.388v44H10z"/><path fill="none" stroke="#000" d="M10 130h57.388v44H10v-44ZM10 155h57.388M10 165h57.388" stroke-miterlimit="10"/><text font-family="Arial" font-size="13" font-weight="bold" x="340.5" y="370" transform="translate(-326 -222)">Context</text><path fill="none" stroke="#000" d="M34 62v68M29.79 119.837 34 130l4.21-10.163M286 42h52v88" stroke-miterlimit="10"/><path fill="#FFF" d="M333.79 119.837 338 130l4.21-10.163L338 108"/><path fill="none" stroke="#000" d="M333.79 119.837 338 130l4.21-10.163L338 108l-4.21 11.837" stroke-miterlimit="10"/></svg>