<svg xmlns="http://www.w3.org/2000/svg" width="386.137" height="370"><path fill="silver" opacity=".2" d="M17 129h153.86v57H17z"/><path fill="#fff" d="M10 122h153.86v57H10z"/><path fill="none" stroke="#000" d="M10 122h153.86v57H10v-57ZM10 147h153.86M10 157h153.86" stroke-miterlimit="10"/><text font-family="Arial" font-size="13" font-weight="bold" x="252.785" y="306" transform="translate(-198 -166)">Aggregate</text><text font-family="Arial" font-size="13" x="213" y="339" transform="translate(-198 -166)">+CreateIterator(): Iterator</text><path fill="silver" opacity=".2" d="M17 281h153.86v57H17z"/><path fill="#fff" d="M10 274h153.86v57H10z"/><path fill="none" stroke="#000" d="M10 274h153.86v57H10v-57ZM10 299h153.86M10 309h153.86" stroke-miterlimit="10"/><text font-family="Arial" font-size="13" font-weight="bold" x="224.611" y="458" transform="translate(-198 -166)">ConcreteAggregate</text><text font-family="Arial" font-size="13" x="213" y="491" transform="translate(-198 -166)">+CreateIterator(): Iterator</text><path fill="silver" opacity=".2" d="M273 105h89.571v102H273z"/><path fill="#fff" d="M266 98h89.571v102H266z"/><path fill="none" stroke="#000" d="M266 98h89.57v102H266V98ZM266 123h89.57M266 133h89.57" stroke-miterlimit="10"/><text font-family="Arial" font-size="13" font-weight="bold" x="486.391" y="282" transform="translate(-198 -166)">Iterator</text><text font-family="Arial" font-size="13" x="469" y="315" transform="translate(-198 -166)">+First()</text><text font-family="Arial" font-size="13" x="469" y="330" transform="translate(-198 -166)">+Next()</text><text font-family="Arial" font-size="13" x="469" y="345" transform="translate(-198 -166)">+Current()</text><text font-family="Arial" font-size="13" x="469" y="360" transform="translate(-198 -166)">+IsDone()</text><path fill="silver" opacity=".2" d="M273 265h110.137v102H273z"/><path fill="#fff" d="M266 258h110.137v102H266z"/><path fill="none" stroke="#000" d="M266 258h110.137v102H266V258ZM266 283h110.137M266 293h110.137" stroke-miterlimit="10"/><text font-family="Arial" font-size="13" font-weight="bold" x="468.5" y="442" transform="translate(-198 -166)">ConcreteIterator</text><text font-family="Arial" font-size="13" x="469" y="475" transform="translate(-198 -166)">+First()</text><text font-family="Arial" font-size="13" x="469" y="490" transform="translate(-198 -166)">+Next()</text><text font-family="Arial" font-size="13" x="469" y="505" transform="translate(-198 -166)">+Current()</text><text font-family="Arial" font-size="13" x="469" y="520" transform="translate(-198 -166)">+IsDone()</text><path fill="none" stroke="#000" d="M86 274v-95" stroke-miterlimit="10"/><path fill="#FFF" d="M94.419 199.325 86 179l-8.419 20.325"/><path fill="none" stroke="#000" d="M94.419 199.325 86 179l-8.419 20.325h16.838M314 258v-58" stroke-miterlimit="10"/><path fill="#FFF" d="M322.419 220.325 314 200l-8.419 20.325"/><path fill="none" stroke="#000" d="M322.419 220.325 314 200l-8.419 20.325h16.838" stroke-miterlimit="10"/><path fill="none" stroke="#000" d="M164 304h102" stroke-miterlimit="10" stroke-dasharray="3"/><path fill="none" stroke="#000" d="M255.837 308.21 266 304l-10.163-4.21M266 314H164M174.163 309.79 164 314l10.163 4.21" stroke-miterlimit="10"/><path fill="silver" opacity=".2" d="M185 17h50.92v44H185z"/><path fill="#fff" d="M178 10h50.92v44H178z"/><path fill="none" stroke="#000" d="M178 10h50.92v44H178V10ZM178 35h50.92M178 45h50.92" stroke-miterlimit="10"/><text font-family="Arial" font-size="13" font-weight="bold" x="383.404" y="194" transform="translate(-198 -166)">Client</text><path fill="none" stroke="#000" d="M178 34H86v88" stroke-miterlimit="10"/><path fill="none" stroke="#000" d="M81.79 111.837 86 122l4.21-10.163M229 34h85v64" stroke-miterlimit="10"/><path fill="none" stroke="#000" d="M309.79 87.837 314 98l4.21-10.163" stroke-miterlimit="10"/></svg>