<svg xmlns="http://www.w3.org/2000/svg" width="468.861" height="253"><path fill="silver" opacity=".2" d="M17 17h148.172v87H17z"/><path fill="#fff" d="M10 10h148.172v87H10z"/><path fill="none" stroke="#000" d="M10 10h148.172v87H10V10ZM10 35h148.172M10 45h148.172" stroke-miterlimit="10"/><text font-family="Arial" font-size="13" font-weight="bold" x="247.001" y="306" transform="translate(-190 -278)">Mediator</text><text font-family="Arial" font-size="13" x="205" y="339" transform="translate(-190 -278)">+IntroColleage()</text><text font-family="Arial" font-size="13" x="205" y="354" transform="translate(-190 -278)">+DoActionFromAtoB()</text><text font-family="Arial" font-size="13" x="205" y="369" transform="translate(-190 -278)">+DoActionFromBtoA()</text><path fill="silver" opacity=".2" d="M257 25h89.571v57H257z"/><path fill="#fff" d="M250 18h89.571v57H250z"/><path fill="none" stroke="#000" d="M250 18h89.57v57H250V18ZM250 43h89.57M250 53h89.57" stroke-miterlimit="10"/><text font-family="Arial" font-size="13" font-weight="bold" x="453.723" y="314" transform="translate(-190 -278)">Colleague</text><text font-family="Arial" font-size="13" x="445" y="347" transform="translate(-190 -278)">+Action()</text><path fill="silver" opacity=".2" d="M185 145h136.861v57H185z"/><path fill="#fff" d="M178 138h136.861v57H178z"/><path fill="none" stroke="#000" d="M178 138h136.86v57H178v-57ZM178 163h136.86M178 173h136.86" stroke-miterlimit="10"/><text font-family="Arial" font-size="13" font-weight="bold" x="372.5" y="434" transform="translate(-190 -278)">ConcreteColleagueA</text><text font-family="Arial" font-size="13" x="373" y="467" transform="translate(-190 -278)">+Action()</text><path fill="none" stroke="#000" d="m258 137 24-61" stroke-miterlimit="10"/><path fill="#FFF" d="M282.393 97.996 282 76l-15.276 15.832"/><path fill="none" stroke="#000" d="M282.393 97.996 282 76l-15.276 15.832 15.669 6.164" stroke-miterlimit="10"/><path fill="silver" opacity=".2" d="M329 145h136.861v57H329z"/><path fill="#fff" d="M322 138h136.861v57H322z"/><path fill="none" stroke="#000" d="M322 138h136.86v57H322v-57ZM322 163h136.86M322 173h136.86" stroke-miterlimit="10"/><text font-family="Arial" font-size="13" font-weight="bold" x="516.5" y="434" transform="translate(-190 -278)">ConcreteColleagueB</text><text font-family="Arial" font-size="13" x="517" y="467" transform="translate(-190 -278)">+Action()</text><path fill="none" stroke="#000" d="m367 137-49-61" stroke-miterlimit="10"/><path fill="#FFF" d="M337.292 86.574 318 76l6.165 21.118"/><path fill="none" stroke="#000" d="M337.292 86.574 318 76l6.165 21.118 13.127-10.544" stroke-miterlimit="10"/><path fill="silver" opacity=".2" d="M17 145h148.172v87H17z"/><path fill="#fff" d="M10 138h148.172v87H10z"/><path fill="none" stroke="#000" d="M10 138h148.172v87H10v-87ZM10 163h148.172M10 173h148.172" stroke-miterlimit="10"/><text font-family="Arial" font-size="13" font-weight="bold" x="218.827" y="434" transform="translate(-190 -278)">ConcreteMediator</text><text font-family="Arial" font-size="13" x="205" y="467" transform="translate(-190 -278)">+IntroColleage()</text><text font-family="Arial" font-size="13" x="205" y="482" transform="translate(-190 -278)">+DoActionFromAtoB()</text><text font-family="Arial" font-size="13" x="205" y="497" transform="translate(-190 -278)">+DoActionFromBtoA()</text><path fill="none" stroke="#000" d="M82 138V97" stroke-miterlimit="10"/><path fill="#FFF" d="M90.419 117.325 82 97l-8.419 20.325"/><path fill="none" stroke="#000" d="M90.419 117.325 82 97l-8.419 20.325h16.838M250 53h-92M168.163 48.79 158 53l10.163 4.21M158 210h68v-15" stroke-miterlimit="10"/><path fill="none" stroke="#000" d="M230.21 205.163 226 195l-4.21 10.163M78 225v17h284v-47" stroke-miterlimit="10"/><path fill="none" stroke="#000" d="M366.21 205.163 362 195l-4.21 10.163" stroke-miterlimit="10"/></svg>