<svg xmlns="http://www.w3.org/2000/svg" width="381.571" height="120"><path fill="silver" opacity=".2" d="M17 17h184.932v100H17z"/><path fill="#fff" d="M10 10h184.932v100H10z"/><path fill="none" stroke="#000" d="M10 10h184.932v100H10V10ZM10 35h184.932M10 58h184.932" stroke-miterlimit="10"/><text font-family="Arial" font-size="13" font-weight="bold" x="325.048" y="258" transform="translate(-254 -230)">Originator</text><text font-family="Arial" font-size="13" x="269" y="280.5" transform="translate(-254 -230)">-state</text><text font-family="Arial" font-size="13" x="269" y="304" transform="translate(-254 -230)">+CreateMemento(): Memento*</text><text font-family="Arial" font-size="13" x="269" y="319" transform="translate(-254 -230)">+RestoreMemento()</text><text font-family="Arial" font-size="13" x="269" y="334" transform="translate(-254 -230)">+GetState()</text><path fill="silver" opacity=".2" d="M289 17h89.571v85H289z"/><path fill="#fff" d="M282 10h89.571v85H282z"/><path fill="none" stroke="#000" d="M282 10h89.57v85H282V10ZM282 35h89.57M282 58h89.57" stroke-miterlimit="10"/><text font-family="Arial" font-size="13" font-weight="bold" x="552.256" y="258" transform="translate(-254 -230)">Memento</text><text font-family="Arial" font-size="13" x="541" y="280.5" transform="translate(-254 -230)">-state</text><text font-family="Arial" font-size="13" x="541" y="304" transform="translate(-254 -230)">+GetState()</text><text font-family="Arial" font-size="13" x="541" y="319" transform="translate(-254 -230)">+SetState()</text><path fill="none" stroke="#000" d="M195 50h87" stroke-miterlimit="10" stroke-dasharray="3"/><path fill="none" stroke="#000" d="M271.837 54.21 282 50l-10.163-4.21" stroke-miterlimit="10"/></svg>