<svg xmlns="http://www.w3.org/2000/svg" width="445.654" height="285"><path fill="silver" opacity=".2" d="M25 17h170.484v100H25z"/><path fill="#fff" d="M18 10h170.484v100H18z"/><path fill="none" stroke="#000" d="M18 10h170.484v100H18V10ZM18 35h170.484M18 58h170.484" stroke-miterlimit="10"/><text font-family="Arial" font-size="13" font-weight="bold" x="301.765" y="226" transform="translate(-222 -198)">Subject</text><text font-family="Arial" font-size="13" x="245" y="249" transform="translate(-222 -198)">-_obs: list&lt;Observer*&gt;</text><text font-family="Arial" font-size="13" x="245" y="272" transform="translate(-222 -198)">+Attach(p: Observer*)</text><text font-family="Arial" font-size="13" x="245" y="287" transform="translate(-222 -198)">+Detach(p: Observer*)</text><text font-family="Arial" font-size="13" x="245" y="302" transform="translate(-222 -198)">+Notify()</text><path fill="silver" opacity=".2" d="M265.484 41h89.571v57h-89.571z"/><path fill="#fff" d="M258.484 34h89.571v57h-89.571z"/><path fill="none" stroke="#000" d="M258.484 34h89.571v57h-89.57V34ZM258.484 59h89.571M258.484 69h89.571" stroke-miterlimit="10"/><text font-family="Arial" font-size="13" font-weight="bold" x="496.724" y="250" transform="translate(-222 -198)">Observer</text><text font-family="Arial" font-size="13" x="485.484" y="283" transform="translate(-222 -198)">+Update()</text><path fill="none" stroke="#000" d="M188 66h70" stroke-miterlimit="10"/><path d="M198.163 61.79 188 66l10.163 4.21L210 66"/><path fill="none" stroke="#000" d="M198.163 61.79 188 66l10.163 4.21L210 66l-11.837-4.21" stroke-miterlimit="10"/><path fill="silver" opacity=".2" d="M169 169h131.827v70H169z"/><path fill="#fff" d="M162 162h131.827v70H162z"/><path fill="none" stroke="#000" d="M162 162h131.827v70H162v-70ZM162 187h131.827M162 210h131.827" stroke-miterlimit="10"/><text font-family="Arial" font-size="13" font-weight="bold" x="388.5" y="378" transform="translate(-222 -198)">ConcreteObserverA</text><text font-family="Arial" font-size="13" x="389" y="401" transform="translate(-222 -198)">-observerState</text><text font-family="Arial" font-size="13" x="389" y="424" transform="translate(-222 -198)">+Update()</text><path fill="none" stroke="#000" d="m247 161 39-69" stroke-miterlimit="10"/><path fill="#FFF" d="M283.328 113.837 286 92l-17.33 13.552"/><path fill="none" stroke="#000" d="M283.328 113.837 286 92l-17.33 13.552 14.658 8.285" stroke-miterlimit="10"/><path fill="silver" opacity=".2" d="M310.827 169h131.827v70H310.827z"/><path fill="#fff" d="M303.827 162h131.827v70H303.827z"/><path fill="none" stroke="#000" d="M303.827 162h131.827v70H303.827v-70ZM303.827 187h131.827M303.827 210h131.827" stroke-miterlimit="10"/><text font-family="Arial" font-size="13" font-weight="bold" x="530.327" y="378" transform="translate(-222 -198)">ConcreteObserverB</text><text font-family="Arial" font-size="13" x="530.827" y="401" transform="translate(-222 -198)">-observerState</text><text font-family="Arial" font-size="13" x="530.827" y="424" transform="translate(-222 -198)">+Update()</text><path fill="none" stroke="#000" d="m351 161-33-69" stroke-miterlimit="10"/><path fill="#FFF" d="M334.365 106.704 318 92l1.174 21.969"/><path fill="none" stroke="#000" d="M334.365 106.704 318 92l1.174 21.969 15.19-7.265" stroke-miterlimit="10"/><path fill="silver" opacity=".2" d="M17 169h112.302v85H17z"/><path fill="#fff" d="M10 162h112.302v85H10z"/><path fill="none" stroke="#000" d="M10 162h112.302v85H10v-85ZM10 187h112.302M10 210h112.302" stroke-miterlimit="10"/><text font-family="Arial" font-size="13" font-weight="bold" x="236.5" y="378" transform="translate(-222 -198)">ConcreteSubject</text><text font-family="Arial" font-size="13" x="237" y="401" transform="translate(-222 -198)">-subjectState</text><text font-family="Arial" font-size="13" x="237" y="424" transform="translate(-222 -198)">+GetState()</text><text font-family="Arial" font-size="13" x="237" y="439" transform="translate(-222 -198)">+SetState()</text><path fill="none" stroke="#000" d="M74 162v-52" stroke-miterlimit="10"/><path fill="#FFF" d="M82.419 130.325 74 110l-8.419 20.325"/><path fill="none" stroke="#000" d="M82.419 130.325 74 110l-8.419 20.325h16.838" stroke-miterlimit="10"/><path fill="none" stroke="#000" d="M162 204h-40" stroke-miterlimit="10" stroke-dasharray="3"/><path fill="none" stroke="#000" d="M132.163 199.79 122 204l10.163 4.21" stroke-miterlimit="10"/><path fill="none" stroke="#000" d="M369 232v42H66v-27" stroke-miterlimit="10" stroke-dasharray="3"/><path fill="none" stroke="#000" d="M70.21 257.163 66 247l-4.21 10.163" stroke-miterlimit="10"/></svg>