<svg xmlns="http://www.w3.org/2000/svg" width="274.019" height="189"><path fill="silver" opacity=".2" d="M169 17h89.571v57H169z"/><path fill="#fff" d="M162 10h89.571v57H162z"/><path fill="none" stroke="#000" d="M162 10h89.57v57H162V10ZM162 35h89.57M162 45h89.57" stroke-miterlimit="10"/><text font-family="Arial" font-size="13" font-weight="bold" x="446.45" y="210" transform="translate(-270 -182)">Prototype</text><text font-family="Arial" font-size="13" x="437" y="243" transform="translate(-270 -182)">+Clone()</text><path fill="silver" opacity=".2" d="M145 129h126.019v57H145z"/><path fill="#fff" d="M138 122h126.019v57H138z"/><path fill="none" stroke="#000" d="M138 122h126.019v57H138v-57ZM138 147h126.019M138 157h126.019" stroke-miterlimit="10"/><text font-family="Arial" font-size="13" font-weight="bold" x="412.5" y="322" transform="translate(-270 -182)">ConcretePrototype</text><text font-family="Arial" font-size="13" x="413" y="355" transform="translate(-270 -182)">+Clone()</text><path fill="silver" opacity=".2" d="M17 25h50.92v44H17z"/><path fill="#fff" d="M10 18h50.92v44H10z"/><path fill="none" stroke="#000" d="M10 18h50.92v44H10V18ZM10 43h50.92M10 53h50.92" stroke-miterlimit="10"/><text font-family="Arial" font-size="13" font-weight="bold" x="287.404" y="218" transform="translate(-270 -182)">Client</text><path fill="none" stroke="#000" d="M202 122V67" stroke-miterlimit="10"/><path fill="#FFF" d="M210.419 87.325 202 67l-8.419 20.325"/><path fill="none" stroke="#000" d="M210.419 87.325 202 67l-8.419 20.325h16.838M61 42h101M151.837 46.21 162 42l-10.163-4.21" stroke-miterlimit="10"/></svg>