<svg xmlns="http://www.w3.org/2000/svg" width="295.873" height="205"><path fill="silver" opacity=".2" d="M129 17h89.571v57H129z"/><path fill="#fff" d="M122 10h89.571v57H122z"/><path fill="none" stroke="#000" d="M122 10h89.57v57H122V10ZM122 35h89.57M122 45h89.57" stroke-miterlimit="10"/><text font-family="Arial" font-size="13" font-weight="bold" x="373.309" y="242" transform="translate(-230 -214)">Subject</text><text font-family="Arial" font-size="13" x="357" y="275" transform="translate(-230 -214)">+Request()</text><path fill="silver" opacity=".2" d="M17 17h50.92v44H17z"/><path fill="#fff" d="M10 10h50.92v44H10z"/><path fill="none" stroke="#000" d="M10 10h50.92v44H10V10ZM10 35h50.92M10 45h50.92" stroke-miterlimit="10"/><text font-family="Arial" font-size="13" font-weight="bold" x="247.404" y="242" transform="translate(-230 -214)">Client</text><path fill="none" stroke="#000" d="M61 34h61M111.837 38.21 122 34l-10.163-4.21" stroke-miterlimit="10"/><path fill="silver" opacity=".2" d="M25 145h115.831v57H25z"/><path fill="#fff" d="M18 138h115.831v57H18z"/><path fill="none" stroke="#000" d="M18 138h115.831v57H18v-57ZM18 163h115.831M18 173h115.831" stroke-miterlimit="10"/><text font-family="Arial" font-size="13" font-weight="bold" x="268.709" y="370" transform="translate(-230 -214)">RealSubject</text><text font-family="Arial" font-size="13" x="253" y="403" transform="translate(-230 -214)">+Request()</text><path fill="none" stroke="#000" d="m96 137 49-69" stroke-miterlimit="10"/><path fill="#FFF" d="M140.096 89.446 145 68l-18.633 11.697"/><path fill="none" stroke="#000" d="M140.096 89.446 145 68l-18.633 11.697 13.729 9.75" stroke-miterlimit="10"/><path fill="silver" opacity=".2" d="M203.302 145h89.571v57h-89.571z"/><path fill="#fff" d="M196.302 138h89.571v57h-89.571z"/><path fill="none" stroke="#000" d="M196.302 138h89.57v57h-89.57v-57ZM196.302 163h89.57M196.302 173h89.57" stroke-miterlimit="10"/><text font-family="Arial" font-size="13" font-weight="bold" x="453.022" y="370" transform="translate(-230 -214)">Proxy</text><text font-family="Arial" font-size="13" x="431.302" y="403" transform="translate(-230 -214)">+Request()</text><path fill="none" stroke="#000" d="m224 137-40-69" stroke-miterlimit="10"/><path fill="#FFF" d="M201.477 81.362 184 68l2.91 21.807"/><path fill="none" stroke="#000" d="M201.477 81.362 184 68l2.91 21.807 14.567-8.445M196 170h-62M144.163 165.79 134 170l10.163 4.21" stroke-miterlimit="10"/></svg>