<svg xmlns="http://www.w3.org/2000/svg" width="347.051" height="189"><path fill="silver" opacity=".2" d="M17 17h101.143v72H17z"/><path fill="#fff" d="M10 10h101.143v72H10z"/><path fill="none" stroke="#000" d="M10 10h101.143v72H10V10ZM10 35h101.143M10 45h101.143" stroke-miterlimit="10"/><text font-family="Arial" font-size="13" font-weight="bold" x="274.377" y="290" transform="translate(-238 -262)">Context</text><text font-family="Arial" font-size="13" x="253" y="323" transform="translate(-238 -262)">+ChangeState()</text><text font-family="Arial" font-size="13" x="253" y="338" transform="translate(-238 -262)">+Request()</text><path fill="silver" opacity=".2" d="M188.143 17h89.571v57h-89.571z"/><path fill="#fff" d="M181.143 10h89.571v57h-89.571z"/><path fill="none" stroke="#000" d="M181.143 10h89.57v57h-89.57V10ZM181.143 35h89.57M181.143 45h89.57" stroke-miterlimit="10"/><text font-family="Arial" font-size="13" font-weight="bold" x="448.033" y="290" transform="translate(-238 -262)">State</text><text font-family="Arial" font-size="13" x="424.143" y="323" transform="translate(-238 -262)">+Handle()</text><path fill="none" stroke="#000" d="M111 41h70" stroke-miterlimit="10"/><path d="M121.163 36.79 111 41l10.163 4.21L133 41"/><path fill="none" stroke="#000" d="M121.163 36.79 111 41l10.163 4.21L133 41l-11.837-4.21" stroke-miterlimit="10"/><path fill="silver" opacity=".2" d="M121 113h106.525v57H121z"/><path fill="#fff" d="M114 106h106.525v57H114z"/><path fill="none" stroke="#000" d="M114 106h106.525v57H114v-57ZM114 131h106.525M114 141h106.525" stroke-miterlimit="10"/><text font-family="Arial" font-size="13" font-weight="bold" x="356.5" y="386" transform="translate(-238 -262)">ConcreteStateA</text><text font-family="Arial" font-size="13" x="357" y="419" transform="translate(-238 -262)">+Handle()</text><path fill="none" stroke="#000" d="m185 105 22-37" stroke-miterlimit="10"/><path fill="#FFF" d="M203.849 89.773 207 68l-17.624 13.168"/><path fill="none" stroke="#000" d="M203.849 89.773 207 68l-17.624 13.168 14.473 8.605" stroke-miterlimit="10"/><path fill="silver" opacity=".2" d="M237.525 113H344.05v57H237.525z"/><path fill="#fff" d="M230.525 106H337.05v57H230.525z"/><path fill="none" stroke="#000" d="M230.525 106h106.526v57H230.525v-57ZM230.525 131h106.526M230.525 141h106.526" stroke-miterlimit="10"/><text font-family="Arial" font-size="13" font-weight="bold" x="473.025" y="386" transform="translate(-238 -262)">ConcreteStateB</text><text font-family="Arial" font-size="13" x="473.525" y="419" transform="translate(-238 -262)">+Handle()</text><path fill="none" stroke="#000" d="m265 105-22-37" stroke-miterlimit="10"/><path fill="#FFF" d="M260.624 81.168 243 68l3.151 21.773"/><path fill="none" stroke="#000" d="M260.624 81.168 243 68l3.151 21.773 14.473-8.605" stroke-miterlimit="10"/><path fill="none" stroke="#000" d="M167 163v15H34V82" stroke-miterlimit="10" stroke-dasharray="3"/><path fill="none" stroke="#000" d="M38.21 92.163 34 82l-4.21 10.163" stroke-miterlimit="10"/><path fill="none" stroke="#000" d="M283 163v7H82V82" stroke-miterlimit="10" stroke-dasharray="3"/><path fill="none" stroke="#000" d="M86.21 92.163 82 82l-4.21 10.163" stroke-miterlimit="10"/></svg>