<svg xmlns="http://www.w3.org/2000/svg" width="363.511" height="189"><path fill="silver" opacity=".2" d="M17 17h89.571v57H17z"/><path fill="#fff" d="M10 10h89.571v57H10z"/><path fill="none" stroke="#000" d="M10 10h89.57v57H10V10ZM10 35h89.57M10 45h89.57" stroke-miterlimit="10"/><text font-family="Arial" font-size="13" font-weight="bold" x="260.591" y="170" transform="translate(-230 -142)">Context</text><text font-family="Arial" font-size="13" x="245" y="203" transform="translate(-230 -142)">+DoAction()</text><path fill="silver" opacity=".2" d="M176.571 17h123.512v57H176.571z"/><path fill="#fff" d="M169.571 10h123.512v57H169.571z"/><path fill="none" stroke="#000" d="M169.57 10h123.513v57H169.57V10ZM169.57 35h123.513M169.57 45h123.513" stroke-miterlimit="10"/><text font-family="Arial" font-size="13" font-weight="bold" x="435.317" y="170" transform="translate(-230 -142)">Strategy</text><text font-family="Arial" font-size="13" x="404.571" y="203" transform="translate(-230 -142)">+AlgrithmInterface()</text><path fill="none" stroke="#000" d="M100 36h70" stroke-miterlimit="10"/><path fill="#FFF" d="M110.163 31.79 100 36l10.163 4.21L122 36"/><path fill="none" stroke="#000" d="M110.163 31.79 100 36l10.163 4.21L122 36l-11.837-4.21" stroke-miterlimit="10"/><path fill="silver" opacity=".2" d="M97 129h126.755v57H97z"/><path fill="#fff" d="M90 122h126.755v57H90z"/><path fill="none" stroke="#000" d="M90 122h126.755v57H90v-57ZM90 147h126.755M90 157h126.755" stroke-miterlimit="10"/><text font-family="Arial" font-size="13" font-weight="bold" x="324.5" y="282" transform="translate(-230 -142)">ConcreteStrategyA</text><text font-family="Arial" font-size="13" x="325" y="315" transform="translate(-230 -142)">+AlgrithmInterface()</text><path fill="none" stroke="#000" d="m173 121 37-53" stroke-miterlimit="10"/><path fill="#FFF" d="M205.269 89.485 210 68l-18.538 11.847"/><path fill="none" stroke="#000" d="M205.269 89.485 210 68l-18.538 11.847 13.807 9.638" stroke-miterlimit="10"/><path fill="silver" opacity=".2" d="M233.755 129H360.51v57H233.755z"/><path fill="#fff" d="M226.755 122H353.51v57H226.755z"/><path fill="none" stroke="#000" d="M226.755 122h126.756v57H226.755v-57ZM226.755 147h126.756M226.755 157h126.756" stroke-miterlimit="10"/><text font-family="Arial" font-size="13" font-weight="bold" x="461.255" y="282" transform="translate(-230 -142)">ConcreteStrategyB</text><text font-family="Arial" font-size="13" x="461.755" y="315" transform="translate(-230 -142)">+AlgrithmInterface()</text><path fill="none" stroke="#000" d="m275 121-28-53" stroke-miterlimit="10"/><path fill="#FFF" d="M263.938 82.039 247 68l2.05 21.904"/><path fill="none" stroke="#000" d="M263.938 82.039 247 68l2.05 21.904 14.888-7.865" stroke-miterlimit="10"/></svg>