<svg xmlns="http://www.w3.org/2000/svg" width="319.044" height="237"><path fill="silver" opacity=".2" d="M97 17h139.406v87H97z"/><path fill="#fff" d="M90 10h139.406v87H90z"/><path fill="none" stroke="#000" d="M90 10h139.406v87H90V10ZM90 35h139.406M90 45h139.406" stroke-miterlimit="10"/><text font-family="Arial" font-size="13" font-weight="bold" x="361.99" y="242" transform="translate(-246 -214)">AbstractClass</text><text font-family="Arial" font-size="13" x="341" y="275" transform="translate(-246 -214)">+TemplateMethod()</text><text font-family="Arial" font-size="13" x="341" y="290" transform="translate(-246 -214)">#PrimitiveOperation1()</text><text font-family="Arial" font-size="13" x="341" y="305" transform="translate(-246 -214)">#PrimitiveOperation2()</text><path fill="silver" opacity=".2" d="M17 161h139.044v73H17z"/><path fill="#fff" d="M10 154h139.044v73H10z"/><path fill="none" stroke="#000" d="M10 154h139.044v73H10v-73ZM10 179h139.044M10 189h139.044" stroke-miterlimit="10"/><text font-family="Arial" font-size="13" font-weight="bold" x="276.388" y="386" transform="translate(-246 -214)">ConcreteClass1</text><text font-family="Arial" font-size="13" x="261" y="419" transform="translate(-246 -214)">#PrimitiveOperation1()</text><text font-family="Arial" font-size="13" x="261" y="434" transform="translate(-246 -214)">#PrimitiveOperation2()</text><path fill="silver" opacity=".2" d="M177 161h139.044v72H177z"/><path fill="#fff" d="M170 154h139.044v72H170z"/><path fill="none" stroke="#000" d="M170 154h139.044v72H170v-72ZM170 179h139.044M170 189h139.044" stroke-miterlimit="10"/><text font-family="Arial" font-size="13" font-weight="bold" x="436.388" y="386" transform="translate(-246 -214)">ConcreteClass2</text><text font-family="Arial" font-size="13" x="421" y="419" transform="translate(-246 -214)">#PrimitiveOperation1()</text><text font-family="Arial" font-size="13" x="421" y="434" transform="translate(-246 -214)">#PrimitiveOperation2()</text><path fill="none" stroke="#000" d="m101 153 32-55" stroke-miterlimit="10"/><path fill="#FFF" d="M130.055 119.802 133 98l-17.498 13.334"/><path fill="none" stroke="#000" d="M130.055 119.802 133 98l-17.498 13.334 14.553 8.468M217 153l-32-55" stroke-miterlimit="10"/><path fill="#FFF" d="M202.498 111.334 185 98l2.945 21.802"/><path fill="none" stroke="#000" d="M202.498 111.334 185 98l2.945 21.802 14.553-8.468" stroke-miterlimit="10"/></svg>