<svg xmlns="http://www.w3.org/2000/svg" width="457.308" height="397"><path fill="silver" opacity=".2" d="M153 17h287.307v72H153z"/><path fill="#fff" d="M146 10h287.307v72H146z"/><path fill="none" stroke="#000" d="M146 10h287.307v72H146V10ZM146 35h287.307M146 45h287.307" stroke-miterlimit="10"/><text font-family="Arial" font-size="13" font-weight="bold" x="395.544" y="170" transform="translate(-126 -142)">Visitor</text><text font-family="Arial" font-size="13" x="277" y="203" transform="translate(-126 -142)">+VisitConcreteElementA(e: ConcreteElementA*)</text><text font-family="Arial" font-size="13" x="277" y="218" transform="translate(-126 -142)">+VisitConcreteElementB(e: ConcreteElementB*)</text><path fill="silver" opacity=".2" d="M153 137h287.307v72H153z"/><path fill="#fff" d="M146 130h287.307v72H146z"/><path fill="none" stroke="#000" d="M146 130h287.307v72H146v-72ZM146 155h287.307M146 165h287.307" stroke-miterlimit="10"/><text font-family="Arial" font-size="13" font-weight="bold" x="367.37" y="290" transform="translate(-126 -142)">ConcreteVisitor</text><text font-family="Arial" font-size="13" x="277" y="323" transform="translate(-126 -142)">+VisitConcreteElementA(e: ConcreteElementA*)</text><text font-family="Arial" font-size="13" x="277" y="338" transform="translate(-126 -142)">+VisitConcreteElementB(e: ConcreteElementB*)</text><path fill="none" stroke="#000" d="M290 130V82" stroke-miterlimit="10"/><path fill="#FFF" d="M298.419 102.325 290 82l-8.419 20.325"/><path fill="none" stroke="#000" d="M298.419 102.325 290 82l-8.419 20.325h16.838" stroke-miterlimit="10"/><path fill="silver" opacity=".2" d="M233 241h119.659v57H233z"/><path fill="#fff" d="M226 234h119.659v57H226z"/><path fill="none" stroke="#000" d="M226 234h119.659v57H226v-57ZM226 259h119.659M226 269h119.659" stroke-miterlimit="10"/><text font-family="Arial" font-size="13" font-weight="bold" x="386.543" y="394" transform="translate(-126 -142)">Element</text><text font-family="Arial" font-size="13" x="357" y="427" transform="translate(-126 -142)">+Accept(v: Visitor*)</text><path fill="silver" opacity=".2" d="M153 337h125.308v57H153z"/><path fill="#fff" d="M146 330h125.308v57H146z"/><path fill="none" stroke="#000" d="M146 330h125.308v57H146v-57ZM146 355h125.308M146 365h125.308" stroke-miterlimit="10"/><text font-family="Arial" font-size="13" font-weight="bold" x="276.5" y="490" transform="translate(-126 -142)">ConcreteElementA</text><text font-family="Arial" font-size="13" x="277" y="523" transform="translate(-126 -142)">+Accept(v: Visitor*)</text><path fill="none" stroke="#000" d="m231 329 30-37" stroke-miterlimit="10"/><path fill="#FFF" d="M254.739 313.09 261 292l-19.34 10.486"/><path fill="none" stroke="#000" d="M254.739 313.09 261 292l-19.34 10.486 13.079 10.604" stroke-miterlimit="10"/><path fill="silver" opacity=".2" d="M329 337h125.308v57H329z"/><path fill="#fff" d="M322 330h125.308v57H322z"/><path fill="none" stroke="#000" d="M322 330h125.308v57H322v-57ZM322 355h125.308M322 365h125.308" stroke-miterlimit="10"/><text font-family="Arial" font-size="13" font-weight="bold" x="452.5" y="490" transform="translate(-126 -142)">ConcreteElementB</text><text font-family="Arial" font-size="13" x="453" y="523" transform="translate(-126 -142)">+Accept(v: Visitor*)</text><path fill="none" stroke="#000" d="m354 329-38-37" stroke-miterlimit="10"/><path fill="#FFF" d="M336.436 300.147 316 292l8.69 20.211"/><path fill="none" stroke="#000" d="M336.436 300.147 316 292l8.69 20.211 11.746-12.064" stroke-miterlimit="10"/><path fill="silver" opacity=".2" d="M17 25h50.92v44H17z"/><path fill="#fff" d="M10 18h50.92v44H10z"/><path fill="none" stroke="#000" d="M10 18h50.92v44H10V18ZM10 43h50.92M10 53h50.92" stroke-miterlimit="10"/><text font-family="Arial" font-size="13" font-weight="bold" x="143.404" y="178" transform="translate(-126 -142)">Client</text><path fill="none" stroke="#000" d="M61 42h85" stroke-miterlimit="10" stroke-dasharray="3"/><path fill="none" stroke="#000" d="M135.837 46.21 146 42l-10.163-4.21" stroke-miterlimit="10"/><path fill="none" stroke="#000" d="M34 62v196h192" stroke-miterlimit="10" stroke-dasharray="3"/><path fill="none" stroke="#000" d="M215.837 262.21 226 258l-10.163-4.21" stroke-miterlimit="10"/></svg>